<svg xmlns="http://www.w3.org/2000/svg" width="512" height="512" viewBox="0 0 191.259 191.259" enable-background="new 0 0 191.259 191.259"><g fill="#fff"><circle cx="59.768" cy="83.634" r="3.985"/><circle cx="83.676" cy="83.634" r="3.985"/><circle cx="107.583" cy="83.634" r="3.985"/><circle cx="35.861" cy="107.541" r="3.984"/><circle cx="59.768" cy="107.541" r="3.984"/><circle cx="83.676" cy="107.541" r="3.984"/><circle cx="107.583" cy="107.541" r="3.984"/><circle cx="155.398" cy="107.541" r="3.984"/><circle cx="131.49" cy="83.634" r="3.985"/><circle cx="155.398" cy="83.634" r="3.985"/><circle cx="35.861" cy="131.449" r="3.985"/><circle cx="59.768" cy="131.449" r="3.985"/><circle cx="83.676" cy="131.449" r="3.985"/><circle cx="107.583" cy="131.449" r="3.985"/><circle cx="131.49" cy="131.449" r="3.985"/><circle cx="155.398" cy="131.449" r="3.985"/><circle cx="35.861" cy="155.356" r="3.985"/><circle cx="59.768" cy="155.356" r="3.985"/><circle cx="83.676" cy="155.356" r="3.985"/><circle cx="107.583" cy="155.356" r="3.985"/><path d="M131.5 119.5c6.6 0 11.94-5.36 11.94-11.96S138.1 95.6 131.5 95.6s-11.96 5.34-11.96 11.94 5.35 11.95 11.95 11.95zm0-15.94c2.2 0 3.98 1.78 3.98 3.98s-1.8 3.98-4 3.98-3.97-1.78-3.97-3.98 1.8-3.98 4-3.98zM175.32 15.98h-7.97V12C167.35 5.4 162 .04 155.4.04S143.44 5.4 143.44 12v3.98H47.8V12C47.8 5.4 42.47.04 35.87.04S23.9 5.4 23.9 12v3.98h-7.96C7.14 15.98 0 23.12 0 31.92v143.36c0 8.8 7.14 15.94 15.94 15.94h159.38c8.8 0 15.94-7.14 15.94-15.94V31.92c0-8.8-7.14-15.94-15.94-15.94zm-23.9 7.97V12c0-2.2 1.78-4 3.98-4s3.98 1.8 3.98 4v15.93c0 2.2-1.78 4-3.98 4s-4-1.8-4-4v-3.98zm-119.54 0V12c0-2.2 1.78-4 3.98-4s4 1.8 4 4v15.93c0 2.2-1.8 4-4 4s-3.98-1.8-3.98-4v-3.98zm151.4 151.33c0 4.4-3.55 7.97-7.96 7.97H15.94c-4.4 0-7.97-3.57-7.97-7.97V55.74H183.3v119.54zm0-127.5H8V31.9c0-4.4 3.55-7.97 7.96-7.97h7.97v3.98c0 6.6 5.36 11.96 11.96 11.96 6.6 0 11.95-5.36 11.95-11.97v-3.98h95.64v3.98c0 6.6 5.35 11.96 11.96 11.96 6.6 0 11.95-5.36 11.95-11.97v-3.98h7.97c4.4 0 7.97 3.56 7.97 7.97v15.85z"/></g></svg>