<?xml version="1.0" encoding="iso-8859-1"?>
<!-- Generator: Adobe Illustrator 19.0.0, SVG Export Plug-In . SVG Version: 6.00 Build 0)  -->
<svg xmlns="http://www.w3.org/2000/svg" xmlns:xlink="http://www.w3.org/1999/xlink" version="1.1" id="Capa_1" x="0px" y="0px" viewBox="0 0 466.508 466.508" style="enable-background:new 0 0 466.508 466.508;" xml:space="preserve" width="512px" height="512px">
<path id="XMLID_550_" d="M461.346,298.431c-0.854-2.688-2.918-4.82-5.577-5.76l-44.196-15.627L389.604,75.561  c-1.085-9.934-5.956-19.453-13.398-26.588c1.012-2.457,1.965-4.946,2.857-7.47c1.657-4.687-0.799-9.829-5.485-11.485L294.364,2.006  c-2.556-0.904-5.387-0.607-7.701,0.811c-2.313,1.417-3.864,3.802-4.221,6.492c-3.397,25.625-25.449,44.95-51.294,44.95  c-25.812,0-47.858-19.3-51.282-44.893c-0.36-2.689-1.914-5.073-4.229-6.487c-2.315-1.414-5.147-1.708-7.703-0.8L88.712,30.21  c-2.249,0.798-4.089,2.458-5.115,4.613c-1.025,2.156-1.153,4.63-0.354,6.879c0.878,2.47,1.813,4.91,2.806,7.314  c-7.415,7.131-12.269,16.635-13.351,26.545L50.701,277.287L6.522,292.976c-3.354,1.191-5.69,4.246-5.962,7.795  c-2.866,37.472,5.27,70.17,24.179,97.185c16.711,23.874,41.287,41.999,71.07,52.417c31.659,11.075,66.963,12.619,99.411,4.351  c34.299-8.739,63.108-28.158,81.122-54.678c2.793-4.111,1.724-9.709-2.389-12.501c-4.11-2.793-9.708-1.724-12.502,2.388  c-31.072,45.749-99.729,64.426-159.699,43.451c-55.11-19.277-86.037-65.923-83.587-125.44l30.369-10.785l-2.746,25.18  c-0.277,2.542,0.54,5.082,2.247,6.985s4.144,2.991,6.7,2.991H92.33c4.304,0,8.005-3.047,8.832-7.27l40.536-206.98  c1.556,1.079,3.138,2.136,4.731,3.159l11.602,117.95l-22.729,8.071c-4.684,1.663-7.133,6.809-5.47,11.493  c1.664,4.684,6.812,7.133,11.493,5.469l29.362-10.427c3.897-1.384,6.35-5.246,5.945-9.362l-11.086-112.714  c15.373,7.092,31.979,11.745,49.25,13.556l-30.971,45.913c-2.052,3.042-2.052,7.024,0,10.066l39.862,59.093  c1.673,2.48,4.469,3.967,7.461,3.967s5.788-1.487,7.461-3.967l39.862-59.093c2.052-3.042,2.052-7.024,0-10.066L247.5,145.252  c17.275-1.816,33.885-6.477,49.256-13.575l-11.081,112.68c-0.405,4.121,2.054,7.986,5.957,9.366l26.349,9.316  c4.686,1.656,9.829-0.798,11.485-5.485c1.657-4.686-0.799-9.829-5.485-11.485l-19.702-6.966l11.597-117.917  c1.592-1.022,3.167-2.075,4.721-3.154l40.543,207.012c0.827,4.223,4.528,7.27,8.832,7.27h37.593c2.557,0,4.993-1.087,6.7-2.991  s2.523-4.443,2.247-6.985l-2.773-25.437l31.69,11.206c7.247,27.067,1.349,53.549-17.184,76.841  c-33.604,42.235-102.417,66.862-171.247,61.274c-4.946-0.399-9.297,3.288-9.698,8.243s3.288,9.296,8.243,9.699  c7.03,0.57,14.07,0.854,21.099,0.854c29.869,0,59.475-5.12,86.671-15.078c33.439-12.244,60.764-30.842,79.019-53.785  C465.735,366.738,472.311,332.946,461.346,298.431z M84.922,314.313h-20.15l3.188-29.248c0.02-0.146,0.036-0.292,0.048-0.439  L90.592,77.515c0.418-3.829,1.836-7.574,4.043-10.897c4.976,8.756,10.753,16.949,17.21,24.488c0.364,0.521,0.775,0.993,1.225,1.413  c4.009,4.569,8.265,8.886,12.755,12.945L84.922,314.313z M260.156,196.204l-29.006,42.999l-29.006-42.999l29.006-43.001  L260.156,196.204z M240.15,127.817v-26.646c0-4.971-4.029-9-9-9s-9,4.029-9,9v26.649c-33.845-2.194-65.156-16.712-88.576-39.777  l26.275-15.17c4.305-2.485,5.779-7.989,3.294-12.294c-2.484-4.304-7.988-5.779-12.294-3.294l-29.49,17.026  c-6.273-8.071-11.7-16.892-16.118-26.349c-0.031-0.068-0.063-0.136-0.096-0.203c-0.567-1.22-1.12-2.455-1.653-3.696l60.836-21.603  c8.696,29.031,35.732,49.799,66.822,49.799c31.131,0,58.179-20.8,66.847-49.875l60.82,21.506c-0.56,1.306-1.138,2.6-1.733,3.882  c-0.019,0.039-0.037,0.078-0.056,0.117c-4.568,9.795-10.22,18.914-16.771,27.218l-30.869-17.822  c-4.306-2.488-9.81-1.011-12.294,3.294c-2.485,4.305-1.011,9.809,3.294,12.294l27.536,15.899  C304.604,111.402,273.627,125.634,240.15,127.817z M377.379,314.313l-40.91-208.891c12.267-11.104,22.837-24.186,31.163-38.857  c2.227,3.335,3.658,7.099,4.078,10.948l22.561,206.912c0.011,0.125,0.024,0.25,0.04,0.374l3.219,29.515H377.379z M159.662,383.105  c-16.962,7.499-34.75,11.277-52.628,11.277c-11.434,0-22.903-1.545-34.217-4.65c-4.793-1.316-7.612-6.268-6.297-11.061  c1.314-4.793,6.267-7.613,11.061-6.297c58.176,15.965,106.771-17.674,132.849-54.482c2.872-4.055,8.489-5.015,12.547-2.141  c4.056,2.874,5.014,8.491,2.141,12.546C207.659,352.939,185.025,371.891,159.662,383.105z M393.946,378.507  c-27.669,0-53.87-9.132-75.908-26.484c-20.608-16.226-36.898-38.898-47.109-65.565c-1.777-4.642,0.545-9.846,5.188-11.623  c4.645-1.777,9.846,0.545,11.623,5.187c14.966,39.087,50.652,80.487,106.135,80.487c0.641,0,1.281-0.006,1.927-0.017  c0.053-0.001,0.105-0.001,0.157-0.001c4.899,0,8.911,3.928,8.996,8.846c0.085,4.97-3.875,9.068-8.845,9.153  C395.389,378.501,394.665,378.507,393.946,378.507z M183.213,413.172c-2.039-4.533-0.017-9.861,4.516-11.9  c45.991-20.687,59.389-68.308,56.59-105.975c-0.368-4.957,3.352-9.274,8.309-9.642c4.97-0.377,9.274,3.352,9.643,8.308  c1.914,25.775-2.692,50.627-13.322,71.869c-11.677,23.335-30.293,41.266-53.834,51.855c-1.198,0.539-2.453,0.794-3.688,0.794  C187.992,418.482,184.713,416.507,183.213,413.172z" fill="#FFFFFF"/>
<g>
</g>
<g>
</g>
<g>
</g>
<g>
</g>
<g>
</g>
<g>
</g>
<g>
</g>
<g>
</g>
<g>
</g>
<g>
</g>
<g>
</g>
<g>
</g>
<g>
</g>
<g>
</g>
<g>
</g>
</svg>
