<svg xmlns="http://www.w3.org/2000/svg" viewBox="0 0 551.034 551.034" enable-background="new 0 0 551.034 551.034"><linearGradient id="a" x1="275.517" x2="275.517" y1="4.57" y2="549.72" gradientUnits="userSpaceOnUse" gradientTransform="matrix(1 0 0 -1 0 554)"><stop offset="0" stop-color="#E09B3D"/><stop offset=".3" stop-color="#C74C4D"/><stop offset=".6" stop-color="#C21975"/><stop offset="1" stop-color="#7024C4"/></linearGradient><path fill="url(#a)" d="M386.88 0H164.16C73.64 0 0 73.64 0 164.16v222.72c0 90.5 73.64 164.15 164.16 164.15h222.72c90.5 0 164.15-73.64 164.15-164.15V164.16C551.03 73.64 477.4 0 386.88 0zM495.6 386.88c0 60.04-48.68 108.72-108.72 108.72H164.16c-60.05 0-108.73-48.68-108.73-108.72V164.16c0-60.05 48.68-108.73 108.73-108.73h222.72c60.04 0 108.72 48.68 108.72 108.73v222.72z"/><linearGradient id="b" x1="275.517" x2="275.517" y1="4.57" y2="549.72" gradientUnits="userSpaceOnUse" gradientTransform="matrix(1 0 0 -1 0 554)"><stop offset="0" stop-color="#E09B3D"/><stop offset=".3" stop-color="#C74C4D"/><stop offset=".6" stop-color="#C21975"/><stop offset="1" stop-color="#7024C4"/></linearGradient><path fill="url(#b)" d="M275.52 133C196.92 133 133 196.93 133 275.52s63.93 142.5 142.52 142.5 142.5-63.92 142.5-142.5S354.1 133 275.53 133zm0 229.6c-48.1 0-87.1-39-87.1-87.08s39-87.1 87.1-87.1c48.1 0 87.08 39 87.08 87.1 0 48.1-39 87.08-87.08 87.08z"/><linearGradient id="c" x1="418.31" x2="418.31" y1="4.57" y2="549.72" gradientUnits="userSpaceOnUse" gradientTransform="matrix(1 0 0 -1 0 554)"><stop offset="0" stop-color="#E09B3D"/><stop offset=".3" stop-color="#C74C4D"/><stop offset=".6" stop-color="#C21975"/><stop offset="1" stop-color="#7024C4"/></linearGradient><circle cx="418.31" cy="134.07" r="34.15" fill="url(#c)"/></svg>