<svg xmlns="http://www.w3.org/2000/svg" width="694pt" height="454pt" viewBox="0 0 694 454"><g fill="#fefefe"><path d="M124.22 1.9c.46-.24 1.36-.7 1.82-.92 5.63-.12 11.28-.12 16.92 0 .45.23 1.36.68 1.82.9 3.3.38 6.97-.84 9.96.95 1.98.13 4.1-.15 5.9.85 1.35.27 2.7.5 4 1 1.32.26 2.64.5 3.93.92 1 .33 2 .68 2.98 1.07 1 .28 2 .6 3 .95 1.38.4 2.7.98 4.04 1.56.94.5 1.9 1 2.87 1.5 7.2 4.12 13.73 9.63 17.96 16.85.33.96.63 1.94.9 2.92.38.98.73 1.97 1.06 2.97 1.06 3.87 1.23 8.4-.1 12.2-.25 1.33-.47 2.66-.9 3.94-.32 1-.67 2-1.03 2.98-.4 1.4-.97 2.7-1.54 4.03-.9 1.6-1.7 3.26-2.55 4.88-.23.5-.7 1.53-.93 2.04-.82 1.37-1.8 2.65-2.58 4.07-9.47 15.73-22.23 29.92-38.2 39.2-1.42.78-2.7 1.76-4.1 2.56-.96.47-1.92.95-2.88 1.44-1.07.5-2.12 1.02-3.18 1.5-.95.52-1.9 1.04-2.83 1.57-1.64.7-3.3 1.28-4.95 1.9-1.34.63-2.68 1.24-4.1 1.63-1 .37-1.98.7-2.98 1.02-1.3.44-2.64.65-3.97.9-1 .4-2 .76-3.03 1.1-1.83.83-3.87.65-5.82.8-1.5 1-3.35.85-5.06 1.02-1.14.7-2.37 1-3.7.88-9.22 0-18.44-.06-27.65 0-1.32 1.75-2.48 3.62-3.67 5.45-1.12 2.3-1.84 4.77-2.94 7.08-.5 1.28-.9 2.6-1.38 3.9-.38 1.43-.98 2.78-1.62 4.1-.5 1.3-.9 2.62-1.4 3.9-.3 1.03-.62 2.03-1 3.03-.3 1-.62 2-.98 3-.32 1.03-.67 2.05-1.06 3.06-.27 1.4-.35 2.88-1.13 4.14-.07 1.3-.13 2.6-.2 3.9 1.34.2 2.6.6 3.82 1.2 2.62.26 5.54-.58 7.9.93 1.72.15 3.56-.03 5.06 1.03 2.03.17 4.28-.33 6.02 1.05 2.2.03 4.43.03 6.65.07 5.83-4.76 11.3-10.13 18-13.72 1.4-.78 2.7-1.76 4.1-2.57.96-.46 1.93-.93 2.9-1.4.5-.27 1.48-.8 1.98-1.1 1.63-.7 3.3-1.28 4.96-1.9 1.33-.64 2.67-1.24 4.1-1.63.98-.37 1.97-.7 2.97-1.02 1.28-.43 2.6-.67 3.93-.93 1.3-.5 2.65-.72 4-1 2.1-1.15 4.57-.66 6.87-.8.47-.23 1.4-.67 1.87-.9 4.96-.1 9.94-.14 14.9.03.44.2 1.3.62 1.73.83 1.98.14 4.1-.16 5.9.85 1.35.27 2.72.48 4 1 1.32.25 2.65.5 3.94.9 1.08.36 2.13.78 3.16 1.26 1.08.05 2.16.1 3.25.14-.05-1.1-.1-2.17-.14-3.26-.48-1.03-.9-2.08-1.26-3.15-.4-1.3-.64-2.6-.9-3.93-.8-1.53-.74-3.28-.9-4.95-1.6-2.6-.62-5.78-.87-8.65.3-3.23-.78-6.78.87-9.75.17-1.67.13-3.4.9-4.94.27-1.32.5-2.65.93-3.93.32-1 .68-2 1.06-2.98.3-1 .6-2 .96-3 .4-1.38.97-2.7 1.55-4.02 1.26-2.26 2.37-4.6 3.5-6.92 6-9.9 13.5-19.24 23.85-24.83.97-.48 1.93-.98 2.9-1.48 1.3-.6 2.64-1.18 4.02-1.62 1.28-.4 2.6-.64 3.93-.9 3.8-1.3 8.34-1.15 12.2-.06 1 .3 2 .66 2.98 1.05.98.27 1.95.57 2.92.9 3.3 2.2 7.02 4.26 8.88 7.94.47 1 .96 1.96 1.47 2.92.8 1.55 1.3 3.2 1.48 4.95 1.16 2.22 1.23 5.14-.07 7.32-.16 1.63-.22 3.3-.8 4.87-.46 1.37-1.03 2.68-1.6 4-.52.96-1.02 1.93-1.5 2.9-1.88 3.3-4.33 6.2-6.54 9.26-3.02 3.78-7.44 5.9-11.3 8.67-1.28.46-2.6.83-3.86 1.3-1.77 1.22-3.84 1.53-5.94 1.5-2.6 1.6-5.8.63-8.67.9-2.57-.22-5.44.63-7.73-.9-1.72-.16-3.6.06-5.07-1.06-2-.05-4.02-.07-6.03-.15-.15 1.62.03 3.4-1.08 4.78-.05 5.14-.06 10.3 0 15.44.88 1.23.9 2.76 1.16 4.2.75 2.04 1.47 4.1 2.4 6.1 1.44 2.35 3.46 4.36 5.8 5.82 2.3 1.28 4.92 1.53 7.3 2.5 3.48.1 6.96.1 10.44.03 1.23-.85 2.74-.9 4.16-1.17 1-.4 2.04-.73 3.08-1.03 2.03-.7 4.07-1.4 5.98-2.4.5-.25 1.47-.77 1.97-1.04 2.03-.97 4.03-2 6.06-2.96 4.56-2.7 8.5-6.3 12.92-9.24.92-1.37.52-3.28 1.36-4.74.2-1.7.1-3.48 1-5 .18-1.64.24-3.32.85-4.87.33-1.03.7-2.04 1.1-3.03.25-1.34.46-2.68.9-3.96.32-1 .68-2 1.07-3 .28-1 .6-2 .95-3 .4-1.38.98-2.7 1.6-4 1.26-2.2 1.92-4.67 2.97-6.98 1.28-2.2 1.94-4.7 3-7.02 1.28-2.2 1.95-4.68 3-7 1.27-2.2 1.94-4.67 3-6.98 1.28-2.22 1.98-4.7 2.95-7.06.55-.95 1.1-1.9 1.65-2.84.68-1.67 1.24-3.4 1.8-5.1.54-.9 1.14-1.8 1.8-2.62 1.9-.16 3.44 1.1 5.12 1.78 3.6 1.94 5.75 5.55 7.86 8.9.94 1.88 1.7 3.85 2.3 5.87-.86 2.3-.38 4.86-1.25 7.17-.46 1.36-1.03 2.68-1.6 4-.9 1.6-1.7 3.26-2.5 4.92-.8 1.37-1.8 2.66-2.56 4.07-2 3.87-4.85 7.23-7 11-.86 1.76-2.04 3.3-3 5-.86 1.76-2.04 3.32-3.03 5-.5.96-1 1.92-1.5 2.88-.73 1.66-1.3 3.4-1.92 5.1-.28 1-.6 2-.95 3-.33 1.07-.72 2.1-1.15 3.14-.2 1.7.05 3.6-1.1 5.08-.06 4.47-.04 8.94 0 13.4 1.96.14 3.53-.86 4.2-2.72.43-1 .87-1.97 1.32-2.95.83-1.38 1.82-2.66 2.65-4.05.44-.98.9-1.96 1.35-2.94.82-1.37 1.8-2.65 2.62-4.03.8-1.66 1.6-3.3 2.4-4.96.8-1.38 1.8-2.66 2.62-4.05.44-.98.9-1.95 1.35-2.93.82-1.4 1.8-2.67 2.58-4.1.86-1.74 2.04-3.3 3-5 .86-1.74 2.04-3.3 3-5 .86-1.74 2.04-3.3 3-5 4.04-6.86 8.8-13.28 13.08-20 6.3-7.4 13.02-14.5 17.98-22.96 1.08-2.26 2.22-4.5 3.22-6.8 1.33.68 2.66 1.36 4.02 2 3.9 2.24 6.56 6.06 8.84 9.86 1.96 2.95 2.4 6.75 1.05 10.05-.43 1.36-1 2.68-1.58 4-.9 1.6-1.7 3.27-2.5 4.93-2.08 3.42-4.53 6.6-6.55 10.07-.86 1.76-2.05 3.3-3 5-.86 1.76-2.04 3.32-3.04 4.98-1.13 2.33-2.25 4.67-3.5 6.93-.86 2.04-1.53 4.16-2.5 6.15-.5 1.3-.9 2.62-1.4 3.9-.3 1.03-.6 2.03-.95 3.03-.35 1.1-.77 2.17-1.25 3.2-.07 4.5-.08 8.97 0 13.45.53 1.1.9 2.27 1.14 3.47.6.3 1.82.93 2.43 1.24 2.67 0 5.53.45 7.87-1.17.95-.5 1.9-.98 2.9-1.44 2.1-1.1 3.6-2.97 5.26-4.57.23-1.2.6-2.36 1.06-3.48.1-1.9.07-3.85.68-5.67.95-1.4 1.98-2.75 2.86-4.2 2.12-1.24 3.74-3.22 6.08-4.13 1.76-.7 3.15-2.1 3.85-3.86.83-1.76 2-3.3 3-4.96.46-.96.94-1.92 1.43-2.88.64-1.35 1.3-2.7 1.96-4.05.8-1.38 1.8-2.66 2.6-4.04 1.13-2.32 2.28-4.63 3.4-6.95.8-1.38 1.8-2.66 2.6-4.05.48-.97.95-1.93 1.44-2.9.64-1.34 1.3-2.7 1.96-4.04.8-1.38 1.8-2.66 2.62-4.04.64-1.35 1.3-2.7 1.96-4.05.48-.95.95-1.93 1.4-2.9.6-1.04 1.32-2 2.06-2.97.3-1.43.87-2.76 1.5-4.08 1.12-1.93 1.8-4.08 2.63-6.15.03-.46.1-1.4.12-1.85 1.52-1.48 3.02-2.98 4.47-4.53 5.45 3.6 10.95 7.6 13.9 13.6.5.98 1 1.95 1.5 2.9.57 1.32 1.15 2.64 1.6 4 .9 2.63 1.3 5.92-.3 8.35 0 .36.03 1.1.04 1.45 1.13 1.87.72 4.16 1.5 6.15.7 1.3 1.34 2.65 1.78 4.07.4 1.3.6 2.63.85 3.96.4 1 .76 2 1.1 3.04.42 1.28.66 2.6.94 3.93.65 2.6.72 6.17 4.36 5.87.2-1.62.3-3.28.9-4.82.32-1 .66-1.98 1.03-2.96.4-1.43 1-2.77 1.62-4.1.62-1.65 1.2-3.3 1.92-4.92.9-1.6 1.7-3.27 2.5-4.93 4.1-6.36 8.26-12.87 14.17-17.74 2.9-2.03 5.6-4.36 8.7-6.1.95-.47 1.9-.97 2.87-1.47 1.33-.6 2.66-1.18 4.04-1.62 1.28-.4 2.6-.64 3.93-.9 2.02-1.18 4.42-.67 6.65-.8 2.83.17 5.84-.43 8.54.7 1.37.45 2.7 1.02 4.02 1.6.95.5 1.9 1 2.9 1.5 4.73 2.35 8.4 6.23 10.94 10.84.33.96.65 1.93.95 2.9 1.13 3.85 1.24 8.4-.06 12.2-.2 1.75-.7 3.4-1.46 4.97-.28.5-.83 1.47-1.1 1.97-.48.98-.94 1.96-1.38 2.95-4.23 6.2-9.28 12.1-15.88 15.86-1.6.75-3.22 1.53-4.93 2-1 .35-1.98.7-2.97 1-1.55.67-3.25.68-4.9.85-3.15 1.35-7.3 1.44-10.42-.07-2-.16-4.2.28-5.96-.94-1.73-.18-3.6.03-5.06-1.07-1.6-.05-3.2-.1-4.78-.16-.34.67-1.02 2.03-1.36 2.7 0 5.86-.06 11.7.03 17.55.77 1.74 1.36 3.55 2.12 5.3.5.96 1 1.93 1.46 2.9 1.67 2.78 4.1 5.15 6.83 6.86.53.27 1.58.8 2.1 1.05 1.7.55 3.54.67 5.16 1.5 4.13.1 8.28.08 12.43.03 1.45-1.16 3.33-.92 5.05-1.1 1.27-.7 2.73-.82 4.13-1.06 1.72-.66 3.46-1.23 5.15-1.95.5-.27 1.5-.82 1.98-1.1.5-.24 1.5-.73 2.02-.98.96-.5 1.92-.96 2.9-1.42 5.35-3.5 10.87-6.92 15.3-11.58 1.25-1.43 3.35-1.92 4.2-3.7.83-1.96 3.04-2.47 4.7-3.47-2.5 6.12-8 10.06-12.36 14.77-5.48 4.94-11.58 9.1-17.8 13.05-1.37.64-2.72 1.3-4.08 1.93-.95.5-1.9 1.03-2.84 1.56-1.33.56-2.65 1.12-4.03 1.52-1 .37-2 .72-2.98 1.03-1.3.43-2.62.65-3.93.9-3.15 1.67-6.86.06-10.13 1.28-2.6-.92-5.54 0-8.07-1.2-1-.32-2-.65-2.98-1-1.73-.5-3.36-1.26-4.98-2-3.14-2.5-6.85-4.43-9.17-7.8-1.53-2.38-3.15-4.7-4.67-7.1-.77-1.6-1.53-3.22-2.06-4.92-.8-1.84-.1-5.27-2.74-5.57-1.77-.58-2.36 1.38-3.13 2.53-.77 1.66-1.57 3.3-2.42 4.93-.22.52-.68 1.56-.9 2.08-4.28 6.17-9.3 12.08-15.9 15.84-1.6.75-3.2 1.52-4.93 2-1 .35-1.98.68-2.98 1-2.04 1.02-4.37.64-6.56.74-2.2-.12-4.6.36-6.63-.8-1.33-.27-2.66-.5-3.94-.93-1-.32-2-.67-2.98-1.03-1.4-.4-2.72-.97-4.03-1.55-.96-.5-1.93-1-2.9-1.5-4.72-3-9.43-6.22-13.16-10.45-1.24.18-2.47.36-3.7.65-1.4.93-2.72 1.97-4.14 2.88-1.3.45-2.6.83-3.88 1.3-1.77 1.23-3.85 1.53-5.95 1.5-1.33 1.13-3.07 1.12-4.38 0-2.46.14-4.73-.64-6.85-1.82-2.75-1.72-5.12-4.1-6.86-6.85-.9-1.87-1.75-3.8-1.92-5.9-.8-1.53-.74-3.27-.9-4.94-1.8-4.25-.55-9.18-.8-13.7.23-.43.67-1.32.9-1.76.2-2.34-.58-5 1-7 .03-2.4.03-4.78.07-7.17-.65-.02-1.94-.06-2.6-.07-.23.62-.72 1.87-.96 2.5-.87 1.37-1.86 2.65-2.7 4.04-.44.98-.9 1.96-1.35 2.95-.82 1.37-1.8 2.65-2.62 4.04-.8 1.64-1.6 3.3-2.43 4.92-.65 1.34-1.32 2.67-2 4-.5 1.04-1.04 2.07-1.53 3.12-.84 1.6-1.64 3.25-2.46 4.88-.66 1.35-1.34 2.7-2.07 4.02-.85 2-1.53 4.1-2.4 6.1-.9 1.6-1.7 3.24-2.53 4.87-.65 1.35-1.32 2.68-2 4-.24.52-.7 1.53-.94 2.04-3.14 4.63-5.82 9.96-10.83 12.87-2.2 1.17-4.6 2.48-7.06 1.14-2.3-1.58-4.45-3.52-5.86-5.97-.73-1.63-1.48-3.26-2.03-4.96-.6-1.57-.64-3.25-.8-4.9-1.2-1.75-.78-3.9-.95-5.88-1.08.22-2.14.5-3.2.8-1.65 1.1-3.24 2.3-5.04 3.17-1.7.96-3.26 2.14-5.02 3-1.42.77-2.7 1.76-4.08 2.6-1.9.94-3.86 1.67-5.84 2.38-1.34.62-2.68 1.23-4.08 1.67-1.3.4-2.62.63-3.93.9-2.1 1.18-4.58.66-6.87.8-1.88 1.4-4.67 1.42-6.53 0-2.76-.04-5.52-.03-8.27-.04.06.54.17 1.64.23 2.18.72 1.26.84 2.7 1.1 4.1 1.32 3.16 1.1 6.97.1 10.2-.53 1.7-1.28 3.34-2 4.98-4.45 5.5-9.43 11-15.84 14.22-1.43.8-2.72 1.8-4.1 2.66-.95.34-1.92.66-2.9.97-1.27.42-2.6.66-3.92.93-1.54.76-3.27.73-4.94.9-1.7 1.18-3.8.8-5.72.88-5-.1-10 .14-15-.1-.44-.2-1.3-.63-1.72-.84-2-.16-4.2.28-5.95-.93-1.66-.17-3.4-.14-4.94-.9-1.32-.27-2.65-.5-3.93-.93-1-.33-2-.68-2.98-1.06-1.02-.3-2.02-.63-3-1-1.02-.3-2-.6-3-.96-1.4-.4-2.75-1-4.07-1.62-1.7-.64-3.4-1.23-5-2-1.67-.64-3.34-1.22-4.97-1.93-.93-.52-1.88-1.03-2.82-1.53-1.08-.52-2.13-1.07-3.2-1.6-.86-.34-1.73-.65-2.62-.93-10.12 10.63-19.1 22.38-27.03 34.77-1.12 2.32-2.26 4.63-3.43 6.92-.25.5-.75 1.5-1 1.98-.5 1.06-1.03 2.1-1.52 3.17-.5.95-1.03 1.9-1.55 2.84-.7 1.67-1.28 3.4-1.9 5.1-.3 1-.6 2-.96 3-.32 1.04-.68 2.06-1.07 3.07-.26 1.4-.4 2.83-1.06 4.1-.22 1.72.02 3.6-1.12 5.08-.27 2.66.7 5.66-1 8-.05 3.48-.05 6.96 0 10.44 1.7 2.33.7 5.33 1.03 8 .92 2.03 1.05 4.32 2.07 6.33.52.95 1.03 1.9 1.52 2.9 2.64 4.67 6.36 8.82 10.8 11.84.98.45 1.95.94 2.9 1.45 1.75.76 3.57 1.34 5.3 2.12 4.83.07 9.65.07 14.48 0 1.24-.88 2.76-.9 4.2-1.15 1.3-.54 2.64-.94 3.95-1.47 1.62-.8 3.35-1.4 5.08-1.93 1.64-1.05 3.2-2.24 4.98-3.1 10.67-6.6 20.05-15.02 28.8-23.98 3.97-4.96 8.5-9.45 12.1-14.7.45-1.37.82-2.75 1.32-4.1.3-1 .63-2 1-3 .3-1 .63-2 1-3 .3-1 .62-2 .97-3 .4-1.4 1-2.75 1.64-4.07.5-1.28.9-2.6 1.38-3.9.37-1.44.98-2.8 1.63-4.12.5-1.28.9-2.6 1.37-3.88.37-1.4.95-2.7 1.55-4 1.28-2.23 1.97-4.7 2.97-7.06.52-.93 1.03-1.88 1.54-2.82.64-1.36 1.3-2.7 2-4.04.5-1.05 1.03-2.1 1.54-3.14.25-.5.76-1.48 1-1.98.48-.96.94-1.93 1.4-2.9.42-.8.9-1.57 1.4-2.32 2.57.6 5.15 1.14 7.5 2.4 2.02 1.13 3.75 2.8 4.84 4.88 2.4 3.87 2.18 8.84 1.03 13.1-.43 1.35-1 2.67-1.57 4-.9 1.6-1.7 3.24-2.54 4.87-.65 1.35-1.3 2.7-1.96 4.04-.82 1.38-1.8 2.65-2.6 4.04-.8 1.64-1.6 3.3-2.44 4.9-.98 2.02-1.98 4.02-3 6-.5 1.06-1.03 2.1-1.52 3.15-.5.94-1 1.9-1.48 2.84-.25.5-.74 1.5-1 2-.5 1.05-1.04 2.08-1.56 3.12-1.07 2-1.73 4.18-2.67 6.24.02 1.53.02 3.1.43 4.6 2.42 3.08 4.47 6.48 8.02 8.4 1.46.2 3.04.1 4.28 1.1 1.14 0 2.3-.02 3.45-.02 2.78-1.1 5.56-2.2 8.2-3.6 3.65-1.97 6.68-4.76 9.5-7.75-.1-5.17 0-10.33-.06-15.5.06-1.93-.32-4.03.86-5.72.17-1.63.2-3.32.84-4.87.32-1 .68-2 1.06-2.98.3-1 .6-2 .97-3 .4-1.4.96-2.72 1.52-4.05.55-.96 1.1-1.9 1.65-2.85.53-1.34 1.06-2.68 1.4-4.08.73-.97 1.47-1.94 2.05-3.02 5.47-9.8 13.56-18.16 23.26-23.83 1.62-.76 3.23-1.52 4.96-2 .98-.36 1.97-.7 2.97-1 1.28-.45 2.6-.68 3.94-.93 2.54-1.2 5.84-1.3 8.32.08 2.05.02 4.1.3 5.88 1.4 1.6.9 3.27 1.7 4.94 2.48 3.65 1.88 5.73 5.56 7.9 8.87.34.95.65 1.92.95 2.9 1.12 3.5 1.23 7.72-.07 11.2-.14 1.78-.68 3.46-1.58 5-.5 1.28-.87 2.6-1.33 3.87-4.3 7.05-9.58 13.8-16.93 17.83-.98.48-1.94.98-2.9 1.5-1.32.57-2.65 1.15-4.02 1.6-1.28.4-2.6.62-3.92.87-2.98 1.5-6.45.53-9.64.8-2.87-.23-6 .62-8.63-.8-1.33-.25-2.66-.48-3.95-.87-1.2-.4-2.32-.9-3.4-1.48-1.18.04-2.2.47-2.9 1.44-.08 5.6-.06 11.2.03 16.8.82 1.6.95 3.44 1.5 5.14.72 1.36 1.4 2.74 2.07 4.15 2.32 3.4 5.38 6.46 8.8 8.78 1.4.65 2.78 1.35 4.15 2.07 1.7.55 3.5.67 5.12 1.5 2.8.1 5.6.08 8.42.03 1.46-1.15 3.36-.9 5.1-1.1 1.02-.44 2.07-.8 3.14-1.12 1.7-.6 3.4-1.18 5.07-1.9 1.6-.9 3.27-1.7 4.93-2.5 1.66-1 3.2-2.2 4.98-3 4.63-3.4 9.5-6.55 13.52-10.7-.07-2.94-.04-5.87-.07-8.8-1.28-1.33-1.3-3.2 0-4.52.28-2.96-.73-6.24.87-8.92.18-1.68.1-3.43.9-4.95.27-1.32.5-2.65.9-3.93.45-1.4 1.05-2.74 1.68-4.06.62-1.66 1.2-3.32 1.9-4.93.74-1.32 1.43-2.67 2.1-4.02.82-1.63 1.62-3.28 2.4-4.92 5.17-8.1 11.56-15.82 19.87-20.85 1.34-.65 2.7-1.3 4.06-1.93.94-.52 1.9-1.03 2.83-1.55 1.33-.57 2.66-1.14 4.03-1.58 2.37-1.06 5-.6 7.5-.7 2.55.1 5.23-.36 7.63.68 1.38.45 2.7 1.02 4.02 1.6.96.5 1.93 1 2.92 1.47 3.15 1.95 5.8 4.76 7.9 7.8.72 1.64 1.47 3.27 2 4.98 1.1 3.87 1.08 8.26.02 12.14-.44 1.4-1.06 2.73-1.7 4.06-.5 1.27-.87 2.58-1.33 3.87-4.3 7.05-9.58 13.8-16.93 17.83-.97.48-1.93.97-2.88 1.48-1.34.6-2.67 1.17-4.05 1.62-1.28.4-2.6.63-3.92.88-2.65 1.4-5.76.58-8.62.8-2.88-.26-6.07.7-8.7-.86-1.64-.17-3.3-.23-4.87-.82-1.07-.36-2.1-.78-3.13-1.24-.5-.05-1.5-.17-2-.23-.38 1.33-1.24 2.56-1.2 4-.05 5.1-.03 10.18.03 15.28.5 1.04.9 2.1 1.24 3.22.47 1.3.84 2.66 1.3 4 2.24 4.23 5.56 7.7 9.9 9.82.5.28 1.54.82 2.06 1.1 1.7.53 3.55.64 5.16 1.5 4.8.08 9.6.07 14.42 0 1.05-.5 2.13-.9 3.24-1.22 1.7-.6 3.4-1.16 5.07-1.88 1.6-.9 3.26-1.7 4.93-2.5 2.64-1.58 5.22-3.3 7.36-5.54.13-1.5.17-3 .85-4.37.27-1.35.5-2.7 1-4 .26-1.35.5-2.7 1-4 .26-1.32.5-2.65.93-3.92.33-1.03.7-2.05 1.1-3.04.24-1.34.46-2.68.9-3.97.32-1.02.7-2.03 1.1-3.03.25-1.34.45-2.68.9-3.97.32-1 .67-2 1.06-2.98.3-1.02.62-2.02 1-3 .28-1.02.62-2.02 1-3 .28-1.02.62-2.02 1-3 .28-1.02.62-2.02 1-3 .28-1.02.6-2.02.96-3 .4-1.42 1-2.77 1.64-4.1.5-1.28.9-2.6 1.42-3.9.27-1 .58-2 .93-3 .42-1.4 1.02-2.76 1.66-4.08.5-1.3.9-2.62 1.38-3.9.37-1.43.98-2.78 1.6-4.1.64-1.7 1.23-3.38 2-5 .63-1.68 1.23-3.38 2-5 .63-1.68 1.23-3.37 2-5 .63-1.68 1.23-3.38 2-5 .63-1.68 1.23-3.38 2-5 .53-1.3.94-2.66 1.47-3.96.25-1.36.44-2.74.97-4.04.26-1.32.5-2.64.93-3.9.47-1.48 1.04-2.9 1.57-4.36 1.62-.6 3.26-1.15 5-1.36 4.1 3.12 8.35 6.34 11.2 10.73 2.42 4.18 2.54 9.8.45 14.12-.52.93-1.03 1.88-1.53 2.84-.26.5-.74 1.5-.98 2-.67 1.35-1.34 2.68-2.03 4-.5 1.05-1.04 2.1-1.53 3.14-1.2 2.28-2.3 4.6-3.47 6.88-.25.5-.75 1.48-1 1.98-.5 1.04-1.03 2.08-1.53 3.14-1.03 1.98-2.03 3.98-3 6-.7 1.32-1.37 2.66-2 4.02-.5.96-1.03 1.9-1.55 2.86-.84 2.02-1.52 4.1-2.4 6.13-.5.93-1.02 1.88-1.52 2.83-.65 1.37-1.34 2.72-2.07 4.05-.85 2-1.53 4.08-2.4 6.08-1.74 2.8-2.76 5.96-4.03 9-1.3 2.22-1.96 4.74-3.04 7.07-.64 1.68-1.24 3.37-2 5-.64 1.68-1.24 3.38-2.02 5-.5 1.3-.9 2.6-1.4 3.9-.3 1.02-.63 2.03-1 3.03-.3 1-.62 2-.98 3-.32 1.03-.67 2.05-1.07 3.06-.28 1.42-.33 2.92-1.17 4.17-.07 3.03-.03 6.08-.08 9.13.66 0 1.98.03 2.64.04 1.72-2.02 3.2-4.24 4.54-6.54 7.5-12.27 15.83-24.1 25.34-34.9 2.06-3.5 5.64-5.73 8-9 1.85-3.04 4.7-5.25 7.14-7.8 3.06-2.92 5.72-6.32 9.38-8.54 2.87-2.42 5.1-5.62 8.56-7.3.9 1.04 1.87 2.04 2.73 3.15-1.93 2.58-5.13 3.7-7.14 6.2-7.43 8.02-14.2 16.6-20.77 25.36-.4 1.5-.42 3.04-.47 4.57 1.54 1.7.94 4 1.14 6.07.78 1.25.85 2.75 1.1 4.17.66 1.7 1.23 3.45 1.96 5.14.73 1.3 1.42 2.65 2.1 4 .46.97.92 1.94 1.4 2.9 6.2 10.12 13.6 19.57 22.83 27.06 3.32 1.14 7.2-.65 10.22 1.4 2.96.3 6.3-.8 8.96.94 2 .15 4.17-.27 5.95.92 1.63.17 3.32.2 4.88.84 1 .32 2 .68 2.97 1.06 1 .3 2 .62 3 .98 1 .3 2 .64 3 1 1 .3 2 .63 3 .98 1.38.4 2.7.97 4 1.55 1.62.9 3.28 1.7 4.94 2.5 1.37.8 2.65 1.78 4.05 2.55 6.18 3.27 11.07 8.4 14.83 14.25.74 1.62 1.5 3.25 2.03 4.96 1.1 2.55.88 5.48.12 8.1-1.6 2.3-3.53 4.46-6 5.85-4.3 2.8-9.6 1.5-14.42 1.6-.44-.17-1.3-.5-1.73-.67-1.33-.25-2.67-.48-3.94-.9-1-.33-2-.67-2.97-1.04-1.4-.4-2.72-.96-4.04-1.52-.95-.53-1.9-1.05-2.85-1.56-.5-.24-1.52-.72-2.03-.96-.5-.26-1.5-.77-2-1.02-1.04-.5-2.08-1.04-3.12-1.53-.97-.5-1.94-.97-2.9-1.44-1.4-.8-2.68-1.8-4.1-2.56-9.9-5.93-19.17-12.86-28-20.27-1.16-.24-2.34-.38-3.5-.5-1.08.58-2.2 1.04-3.35 1.4-1 .33-2.02.64-3.03.92-2.05.7-4.12 1.38-6 2.5-1.98.9-4.07 1.57-6.08 2.4-.96.53-1.9 1.05-2.86 1.57-1.06.47-2.1 1-3.15 1.5-2 1.02-4 2.02-6 3-1.33.68-2.67 1.35-4 2-.5.26-1.5.75-2 1-1.62.83-3.26 1.63-4.88 2.48-1.05.5-2.08 1-3.12 1.52-1.62.84-3.27 1.64-4.9 2.43-1.4.8-2.68 1.8-4.06 2.6-2.7 1.3-5.37 2.66-8.06 3.98-.96.48-1.93.96-2.9 1.43-1.38.8-2.67 1.8-4.06 2.6-.97.47-1.94.94-2.9 1.43-1.05.5-2.08 1.03-3.13 1.53-2.28 1.18-4.6 2.3-6.9 3.43-1.4.8-2.68 1.8-4.06 2.6-1 .47-1.96.94-2.92 1.42-.5.25-1.5.75-2 1-1.34.65-2.68 1.32-4 2.02-1.05.5-2.08 1.02-3.12 1.52-1.63.84-3.28 1.64-4.93 2.43-1.38.8-2.66 1.8-4.04 2.6-1.36.66-2.7 1.3-4.05 1.96-1.62.83-3.26 1.63-4.88 2.48-1.05.5-2.08 1-3.12 1.5-1.33.7-2.67 1.37-4 2.03-.5.26-1.5.76-2 1-.5.26-1.5.76-2 1-.5.26-1.5.76-2 1-1.33.68-2.66 1.35-4 2-2.28 1.17-4.6 2.3-6.88 3.46-.5.25-1.48.75-1.97 1-1.06.5-2.1 1.03-3.15 1.53-1.33.68-2.66 1.35-4 2-.5.26-1.5.76-2 1-.5.26-1.5.76-2 1-.5.26-1.5.76-2 1-.5.26-1.5.76-2 1-.5.26-1.5.76-2 1-.5.26-1.5.75-2 1-1.62.83-3.26 1.62-4.87 2.47-1.72.82-3.4 1.7-5.13 2.52-1.63.84-3.28 1.63-4.88 2.53-2 .88-4.1 1.55-6.1 2.4-.97.5-1.92 1.03-2.88 1.53-.52.27-1.52.8-2.02 1.07-2.35 1-4.83 1.7-7.04 2.98-2.32 1.05-4.8 1.72-7 3-1.6.74-3.25 1.33-4.9 1.95-1.33.62-2.68 1.23-4.1 1.6-1.3.5-2.62.87-3.9 1.4-1.33.62-2.67 1.23-4.1 1.64-1 .33-2 .64-3 .92-1.3.5-2.63.9-3.92 1.43-1.32.62-2.66 1.23-4.07 1.62-1 .36-1.98.7-2.98 1.02-1.3.43-2.63.64-3.96.9-1 .4-2.02.74-3.05 1.05-.98.37-1.98.72-2.98 1.04-1.3.4-2.6.66-3.93.93-1.3.5-2.65.72-4 1-1.54.74-3.27.73-4.93.92-1.27.6-2.68.8-4.06 1.06-1.8 1.02-3.92.73-5.9.87-2.05 1.46-4.65.76-6.98.96-3.3 1.94-7.36.54-11 .98-2.46 1.53-6.06 1.53-8.53 0-3.63-.43-7.7.97-11-.96-2.28-.16-4.76.35-6.86-.83-1.36-.25-2.72-.48-4-.97-1.33-.27-2.66-.5-3.94-.93-1-.33-2-.7-2.98-1.07-1-.3-2-.6-3-.95-1.4-.4-2.76-1-4.1-1.63-1.64-.63-3.32-1.22-4.93-1.93-.96-.52-1.92-1-2.9-1.5-1.4-.8-2.68-1.78-4.1-2.55-4.47-2.4-8.48-5.55-12.6-8.53-2.6-2.06-4.48-5-7.45-6.6-1.98-3.57-5.77-5.64-7.8-9.18-3.23-3.62-6-7.65-8.34-11.9-.77-1.4-1.76-2.7-2.57-4.07-.65-1.37-1.3-2.72-1.94-4.08-.5-.95-1.03-1.9-1.55-2.83-.7-1.64-1.3-3.3-1.92-4.97-.78-1.63-1.37-3.32-2-5-.62-1.33-1.22-2.67-1.66-4.06-.7-1.33-.7-2.83-.7-4.28 7.1 10.24 16.25 19.07 26.65 25.95 1.78.8 3.33 2 5 3.02 2 .97 4 1.98 6.03 2.96 1.63.84 3.28 1.64 4.9 2.54 1.64.7 3.35 1.28 5.05 1.88 1.45.33 2.8.98 4.12 1.67 1.6.53 3.3.77 4.9 1.3 1.04.32 2.05.68 3.06 1.08 1.37.24 2.75.46 4.05.96 1.37.28 2.78.47 4.06 1.1 1.7.2 3.56.02 5.06 1.07 2.02.18 4.28-.36 6 1.05 4.62.58 9.75-1.12 14 1 6.5.05 12.98.05 19.47 0 3.93-2.07 8.7-.46 13-1 2.63-1.82 6.02-.65 9-1 1.73-1.4 3.98-.88 6.02-1.04 1.76-1.32 3.98-.85 6-1 1.74-1.34 3.98-.83 6-1.02 1.25-.74 2.7-.87 4.1-1.14 1.54-.77 3.27-.75 4.94-.93 1.27-.6 2.68-.8 4.06-1.1 1.3-.47 2.65-.7 4-1 1.3-.47 2.65-.72 4-1 1.3-.5 2.67-.7 4.04-.94 1-.4 2-.78 3.03-1.1 1.3-.44 2.63-.66 3.96-.9 1-.4 2-.75 3.04-1.06 1-.36 2-.7 3-1 1-.36 2-.7 3-1 1-.36 2-.7 3-1 1-.36 2-.7 3-1 1-.36 2-.7 3-1 1-.36 2-.7 3-1 1-.36 2-.7 3-1 1-.36 2-.68 3.02-.97 2.05-.7 4.12-1.38 6-2.48 1.6-.76 3.28-1.34 4.93-1.97 2.32-1.08 4.82-1.74 7.05-3.03 2.3-1.05 4.73-1.77 7-2.9.5-.3 1.47-.86 1.96-1.14 2.35-.98 4.8-1.7 7.04-2.9 1.33-.67 2.66-1.34 4-2 .5-.28 1.48-.82 1.97-1.1 3.07-1.2 6.18-2.28 9.03-3.93 1.04-.5 2.07-1.03 3.12-1.53 1.33-.7 2.66-1.36 4.02-2 .94-.5 1.9-.98 2.84-1.46 1.35-.65 2.7-1.32 4.02-2 .5-.25 1.5-.75 2-1s1.5-.74 2-1c1.34-.65 2.67-1.32 4-2 1.05-.52 2.08-1.05 3.14-1.54.5-.25 1.48-.75 1.98-1 1.62-.83 3.26-1.63 4.88-2.47 1.34-.65 2.68-1.3 4-2 .5-.24 1.5-.75 2-1 1.04-.5 2.08-1.02 3.15-1.5.94-.52 1.9-1.04 2.84-1.56 2-.87 4.1-1.55 6.12-2.4 1.6-.9 3.26-1.7 4.9-2.54 1.72-.83 3.42-1.7 5.14-2.54.5-.26 1.5-.76 1.98-1 1.33-.7 2.66-1.36 4-2 1.64-.84 3.28-1.64 4.9-2.53 2.3-1 4.75-1.72 7-2.9 1.33-.68 2.67-1.37 4-2.1 3.05-1.2 6.2-2.27 9-4 2.34-1 4.8-1.7 7.02-2.97 1.6-.75 3.25-1.34 4.9-1.96 2.33-1.08 4.84-1.75 7.08-3.04 1.44-.73 2.95-1.3 4.56-1.53-.02-1.06-.02-2.1 0-3.16-5.96-3.6-10.36-9.42-14.4-15-3.73-4.57-6.57-9.75-10.03-14.5-3.36-.8-4.06 3.6-5.86 5.55-.45.98-.9 1.95-1.35 2.94-.83 1.37-1.8 2.66-2.64 4.04-.45.98-.9 1.96-1.35 2.95-4.04 5.76-7.26 12.67-13.88 15.9-1.53.55-3.06 1.07-4.6 1.6-2.34-.76-4.05-2.53-5.72-4.24-.22-1.05-.48-2.08-.8-3.1-.54-1.18-1.58-2.26-1.43-3.65-.05-4.66 0-9.32 0-14-1.4.06-2.8.1-4.18.16-1.04.47-2.1.87-3.18 1.2-1 .37-2 .7-3 1-1 .35-2 .68-3 .98-1 .38-2 .73-2.98 1.06-1.56.64-3.25.66-4.9.83-2.28 1.45-5.1.67-7.63.87-2.88-.23-6.02.6-8.68-.8-1.32-.25-2.65-.48-3.93-.88-1.38-.44-2.7-1.02-4-1.6-.98-.5-1.94-1-2.9-1.5-5.13-2.86-9.48-7.08-12.9-11.8-.7-1.5-1.4-3-2.05-4.53-1 .02-2 .06-2.98.1-3.23 1.95-5.6 5.1-9.07 6.67-2.43 1.4-4.66 3.12-7.05 4.57-1.67.8-3.33 1.6-5 2.37-1.04.64-2 1.37-2.97 2.12-1.8.28-3.4 1.1-4.97 2-1.3.58-2.63 1.16-4 1.55-1 .36-2 .7-3 1.02-1.27.43-2.6.65-3.93.9-2.33 1.3-5.07.64-7.6.8-2.22-.12-4.63.4-6.66-.8-1.73-.18-3.4-.67-4.93-1.47-1.6-.9-3.27-1.7-4.93-2.5-5.83-2.7-8.82-8.53-12.77-13.28-1.1 0-2.17 0-3.25 0-3 3.57-7.18 5.74-11 8.28-.98.48-1.94.97-2.9 1.5-1.32.56-2.64 1.14-4.03 1.54-1 .36-1.98.7-2.97 1-2.37 1.15-5.06.6-7.58.74-2.52-.1-5.18.35-7.57-.68-1.36-.45-2.68-1.02-4-1.6-2.4-1.8-6.68-3.2-7.73.7-.77 1.67-1.56 3.3-2.4 4.94-.24.5-.74 1.5-1 2-.24.5-.74 1.5-1 2-.24.5-.75 1.5-1 1.98-.5 1.05-1.03 2.08-1.52 3.14-.85 1.6-1.65 3.26-2.53 4.86-1.42 2.17-1.22 4.76-1.3 7.23 1.22.25 2.43.56 3.62.94 1.02.34 2.04.7 3.04 1.1 1.4.25 2.83.4 4.1 1.06 1.72.2 3.57.02 5.06 1.07 2.02.18 4.3-.36 6 1.06 3.64.44 7.73-1 11 .98 5.16.05 10.3.05 15.47 0 2.95-1.9 6.68-.6 10-1 1.72-1.4 4-.87 6.02-1.05 1.48-1.07 3.33-.88 5.04-1.07 1.26-.67 2.7-.8 4.1-1.06 1-.4 2-.75 3.04-1.05 1-.38 2-.7 3-1 1-.37 2-.7 3.02-.98 1.3-.5 2.62-.9 3.9-1.4 2-.98 4.14-1.66 6.2-2.5.5-.28 1.48-.82 1.97-1.1.5-.24 1.5-.73 2.02-.97.96-.5 1.92-.96 2.9-1.43 1.66-1 3.22-2.2 4.98-3.03 4.16-2.44 7.94-5.5 11.62-8.6 2.3 2.07 4.72 4.15 6.34 6.83.9 1.87 1.76 3.8 1.9 5.9 1.06 1.63 1.17 3.84-.17 5.37-.03 1.64.02 3.28-.13 4.93-3.07 2.12-6.14 4.32-9.44 6.1-1.42.77-2.7 1.76-4.08 2.6-1.9.94-3.87 1.67-5.85 2.4-1.33.6-2.67 1.2-4.08 1.6-1 .36-2 .67-3 .96-.98.4-1.98.74-2.98 1.07-1.3.42-2.62.65-3.93.92-1.54.8-3.28.73-4.95.9-1.77 1.2-3.96.78-5.95.94-3 1.8-6.67.58-9.97.95-.46.24-1.4.7-1.86.93-4.6.12-9.22.1-13.82 0-.47-.23-1.4-.7-1.88-.92-3.96-.5-8.4 1.04-12-.98-2.65-.26-5.6.65-7.97-.96-2-.15-4.18.26-5.96-.94-1.7-.17-3.5-.04-5-.98-1.67-.18-3.4-.16-4.94-.9-1.35-.3-2.7-.53-4-1-1.35-.28-2.7-.52-4-1-1.32-.28-2.65-.52-3.93-.94-1.03-.34-2.04-.7-3.04-1.1-1.42-.28-2.92-.34-4.16-1.14-1.25-.06-2.5-.1-3.75-.15-5.48 5.73-10.94 11.55-18 15.33-1.67.8-3.32 1.6-4.93 2.5-1.55.8-3.2 1.3-4.94 1.47-2.83 1.3-6.3 1.1-9.2.1-1.7-.53-3.34-1.28-4.97-2-3.64-2.13-6.02-5.7-8.46-9-.04-.43-.14-1.26-.18-1.68-1.67-4.1-1.48-9.35.8-13.24 1.4-2.42 3.46-4.45 5.85-5.87 1.87-.9 3.8-1.75 5.9-1.92 1.52-.78 3.26-.75 4.93-.9 3.17-1.34 7.36-1.5 10.46.1 2.33.2 4.94-.54 6.98.96 2.1.22 4.58-.5 6.24 1.27 3.17.08 3-3.57 4.2-5.64 1.1-1.88 1.8-3.95 2.5-6 .28-1.02.6-2.03.96-3.02.3-1.04.67-2.06 1.07-3.06.27-1.4.33-2.9 1.15-4.15.05-1.74.08-3.47.13-5.2-1.12.02-2.24.03-3.35.05-2.2 1.8-4.54 3.4-7.06 4.7-1.7.95-3.25 2.13-5 3-1.4.76-2.7 1.74-4.08 2.55-1.66.8-3.3 1.6-4.93 2.45-1.06.5-2.1 1-3.15 1.5-.95.5-1.9 1.03-2.83 1.56-1.64.7-3.3 1.28-4.97 1.9-1.55.87-3.23 1.4-5 1.6-1.28.48-2.65.7-4 1-1.53.75-3.26.72-4.93.9-2 1.32-4.46.72-6.7.87-2.24-.14-4.7.46-6.7-.86-1.63-.17-3.3-.24-4.87-.8-1.7-.56-3.3-1.3-4.92-2.06-3.05-1.84-5.8-4.1-8.7-6.2-2.3-3.3-5.24-6.1-7.17-9.7-.22-.5-.67-1.54-.9-2.05-.52-.95-1.04-1.9-1.57-2.84-.56-1.34-1.12-2.67-1.52-4.06-.38-.98-.72-1.97-1.03-2.97-.43-1.28-.66-2.62-.9-3.93-1.18-2.1-.7-4.58-.84-6.87-1.94-3.9-.62-8.57-.87-12.78.2-.45.66-1.33.88-1.77.26-2.65-.65-5.62.95-7.97.14-1.98-.16-4.1.85-5.9.26-1.34.5-2.7.98-4 .28-1.34.52-2.7 1-4 .28-1.32.5-2.65.94-3.93.33-1 .68-2 1.07-2.98.28-1 .6-2 .95-3 .4-1.42 1-2.76 1.62-4.08.64-1.66 1.22-3.33 1.93-4.96.52-.93 1.03-1.88 1.55-2.82.48-1.06 1-2.1 1.5-3.15 1.2-2.28 2.33-4.6 3.45-6.92.8-1.38 1.8-2.66 2.56-4.07 2.6-4.52 5.56-8.88 8.7-13.06.02-.97.05-1.93.08-2.9-.67-.34-2.03-1.03-2.7-1.37-5.18 0-10.35-.04-15.52.02-2.03 1.56-4.66.8-7 1.03-1.25.78-2.73.88-4.13 1.17-1.55.8-3.3.74-4.98.9-1 .44-2.05.84-3.1 1.2-1.3.4-2.63.63-3.96.87-1 .4-2 .75-3.04 1.06-1 .36-2 .68-3.03.97-1.28.5-2.6.9-3.9 1.4-1.32.65-2.67 1.25-4.1 1.62-2.06.65-4.1 1.36-6 2.46-1.6.76-3.26 1.33-4.93 1.9-1.07.56-2.14 1.13-3.22 1.7-.6-1.62-1.25-3.2-1.74-4.85-.36-1-.7-2-.98-3-.38-1-.74-1.98-1.06-3-.43-1.27-.65-2.6-.9-3.93-1.06-1.27-.76-2.77-.2-4.16 1.96-3.52 6.07-4.72 8.96-7.28 1-.26 1.96-.55 2.9-.9 1.62-.8 3.3-1.4 5-2.03 1.33-.62 2.68-1.23 4.08-1.68 1.3-.4 2.63-.62 3.96-.86 1-.4 2-.77 3.04-1.1 1.28-.43 2.6-.66 3.92-.92 1.54-.77 3.27-.74 4.93-.92 1.52-.98 3.35-.82 5.08-.95.62-.28 1.86-.85 2.48-1.14.1-1.5 0-3.1.96-4.4.15-1.98-.15-4.1.86-5.9.27-1.34.5-2.7.98-4 .28-1.35.52-2.7 1-4 .28-1.35.52-2.7 1-4 .28-1.34.52-2.7 1-4 .27-1.32.52-2.65.94-3.93.33-1.02.7-2.04 1.1-3.03.25-1.34.46-2.68.9-3.97.33-1.03.7-2.04 1.1-3.04.27-1.42.35-2.9 1.1-4.14.08-.9.16-1.8.23-2.7-7.32-4.8-15.08-9.14-21.5-15.14-2.5-1.5-4.46-3.68-6.3-5.9 2.1.24 3.58 1.72 5.3 2.74 1.66.8 3.33 1.6 4.94 2.5 1.66.73 3.37 1.3 5.07 1.92 1.02.28 2.02.6 3.02.96 1.03.3 2.05.67 3.05 1.06 1.4.25 2.84.4 4.1 1.07 1.8.26 3.85-.17 5.25 1.3 1.73.16 2.67-1.2 3.4-2.56.5-1.75 1.08-3.5 1.9-5.14.63-1.68 1.22-3.37 2-5 .63-1.67 1.22-3.36 2-5 .62-1.63 1.2-3.3 1.94-4.9 1.28-2.22 1.98-4.7 2.95-7.06.55-.95 1.1-1.9 1.63-2.84.83-2.06 1.5-4.18 2.46-6.18.63-1.7 1.23-3.4 2.02-5 .5-1.3.9-2.63 1.4-3.92.3-1.02.62-2.02.98-3.02.3-1.03.67-2.05 1.06-3.05.24-1.34.46-2.68.9-3.97.32-1 .67-2 1.05-2.98.03-2.76 2.46-4.7 4.92-2.85 1.7.53 3.34 1.28 4.97 2 3.1 2.05 5.72 4.85 7.93 7.83.48 1.84.85 3.7 1.3 5.55-.57 2.17-.7 4.43-1.37 6.57-.32 1-.66 2-1.03 3-.4 1.38-.97 2.7-1.57 4-1.28 2.2-1.95 4.68-3 7-1.3 2.23-1.96 4.75-3.04 7.1-.63 1.63-1.2 3.3-1.96 4.9-1.3 2.23-1.96 4.74-3.04 7.08-.63 1.68-1.23 3.38-2.02 5-.5 1.3-.9 2.62-1.4 3.9-.3 1.1-.7 2.17-1.17 3.2-.06 1.07-.13 2.13-.2 3.2 6.43-.05 12.84.02 19.25-.05 1.74-1.4 4-.87 6.03-1.04 1.48-1.08 3.33-.88 5.04-1.08 1.26-.65 2.7-.8 4.08-1.07 1-.4 2.04-.74 3.08-1.03 1.3-.5 2.62-.9 3.9-1.4 2-.98 4.13-1.65 6.18-2.5.5-.27 1.5-.82 2-1.1 1.63-.8 3.27-1.6 4.92-2.4 1.66-1 3.2-2.2 5-3 12.45-8.18 22.8-19.3 30.78-31.84.84-1.76 2.02-3.3 3.03-4.97.8-1.65 1.6-3.3 2.4-4.93.3-.5.83-1.5 1.1-2 .72-1.67 1.3-3.4 1.95-5.12.26-1.4.27-2.94 1.15-4.18.06-2.83.06-5.65 0-8.47-.9-2.07-1.6-4.2-2.54-6.25-1.37-2.86-4.44-4.1-6.9-5.82-1.92-.95-3.94-1.66-5.97-2.34-1.08-.3-2.13-.68-3.15-1.12-1.72-.2-3.6.07-5.07-1.1-8.16-.06-16.3-.05-24.46 0-2.32 1.7-5.33.72-8 1-1.46 1.14-3.34.9-5.06 1.1-1.5.98-3.3.83-4.98 1-1.52.94-3.3.83-5 1.02-1.3.66-2.72.8-4.1 1.05-1.02.4-2.03.77-3.06 1.1-1.3.43-2.64.66-3.97.9-1 .4-2.02.75-3.04 1.06-1 .36-2 .7-3 1-1 .36-2 .7-3 1-1 .36-2 .68-3.02.97-1.7.62-3.43 1.2-5.1 1.9-.95.53-1.9 1.07-2.84 1.6-2.02.86-4.1 1.54-6.12 2.4-1.6.9-3.28 1.7-4.94 2.5-1.66 1-3.2 2.2-4.96 3.03-5.56 3.2-10.48 7.33-15.68 11.05-3.97 3.28-6.9 7.77-11.47 10.28-2.78-2.64-5.26-5.52-7.42-8.68-.04-.43-.14-1.28-.2-1.7-.45-1.02-.85-2.06-1.2-3.12-.95-3.26-1.36-7.2.22-10.3.04-.42.14-1.26.18-1.67 5.22-8.04 13.3-13.58 21.44-18.37 1.4-.78 2.7-1.76 4.07-2.6.53-.22 1.56-.67 2.07-.9.95-.52 1.9-1.04 2.84-1.57 2.36-.98 4.83-1.68 7.05-2.96 1.3-.6 2.62-1.2 4.02-1.56 1.3-.48 2.6-.87 3.9-1.37 1.54-.9 3.23-1.43 5.02-1.57 1-.4 2-.74 3.05-1.05.98-.37 1.97-.72 2.97-1.04 1.55-.62 3.23-.67 4.87-.86 1.28-.6 2.68-.8 4.05-1.07 1.54-.75 3.28-.73 4.94-.9 1.5-.95 3.3-.82 5-1 2.07-1.37 4.62-.72 6.93-.9 3.3-1.94 7.36-.54 11-.98M465.9 78.4l.77 1.12c-.92-.05-2.75-.14-3.67-.18l.55 1.45c-.63-.2-1.9-.66-2.5-.88l.92 1.43c-2.27-.52-3.65 1.17-5.05 2.6-1.24 1.4-2.56 2.74-4 3.96-1.13 1.18-2.18 2.42-3 3.82-.7 1-1.32 2.04-1.85 3.13l-1.2-.9c.27.7.77 2.1 1.02 2.82l-1.85-.6c.17.57.53 1.74.7 2.32l-1.66-.37.73 1.8-1.92-.82c.3.72.85 2.13 1.13 2.84l-1.56-1.06c-.03 1.6-.06 3.2-.14 4.78 3.94-.2 7.9-.14 11.85-.04l-1.26-1.18c2.07.08 4.16.13 6.25.2l-1.25-1.24c1.04.07 3.12.2 4.16.27l-1-1.66c.72.28 2.15.82 2.86 1.1l-1-1.94 1.73.78.05-1.58c.6.17 1.83.5 2.43.67l-1.06-1.1c3.05-1.16 4.96-4.05 7.07-6.4.15-.72.45-2.18.6-2.9l1.25-.05c-.27-.62-.82-1.85-1.1-2.47l1.65.98c-.03-2.1 0-4.17.06-6.26l-1 1.27c.14-1.9-.06-4.17-2.65-3.96l1.24-.92c-1.08.1-3.23.32-4.3.43l1.26-1.24c-1.76.03-3.52.04-5.27.02m-243 1l1.02 1.6c-.67-.26-2.02-.8-2.7-1.07l.5 1.94c-.66-.24-1.98-.72-2.64-.96l.88 1.84-1.98-.66.85 1.84c-.7-.27-2.08-.8-2.77-1.06l1 1.78-2.06-.7.8 1.22c-1.6.1-2.46.95-2.56 2.53l-1.42-.9.92 1.4c-1.6.12-2.48 1-2.6 2.68l-1.23-.98c.16.46.45 1.37.6 1.83-1.17.7-1.97 1.78-2.56 2.98-.68 1-1.34 2.03-1.98 3.07-1.22 1.08-1.76 2.52-1.64 4.17l-1.45-.96c.3.73.85 2.17 1.13 2.9l-1.53-.96c-.04 1.24-.1 2.47-.16 3.7 1.97-.08 3.93-.1 5.9-.06l-1.3-1.12c2.42.07 4.85.1 7.27.17l-1.24-1.27c1.06.1 3.17.28 4.23.38l-1.24-1.33c1.04.08 3.1.2 4.14.27l-.97-1.64c.73.28 2.22.83 2.96 1.1l-.92-1.25c1.93-.82 4.03-1.53 5.3-3.33.42.12 1.26.36 1.68.48l-1-1.1c2.02-.5 3.5-2.1 3.82-4.14l1.18-.1-1.15-.85c2.62.3 2.78-2.1 2.68-3.93l1.08 1.24c-.06-.87-.2-2.62-.27-3.5.3.05.88.13 1.17.17-.02-.93-.06-2.8-.08-3.72-1.1-.7-2.22-1.4-3.37-2.04l.9-1.2c-.75.28-2.26.84-3 1.12l1.02-1.56c-2.4.04-4.8.04-7.2 0m164.03 2c.15.32.47.94.62 1.25-1.45 1.1-2.84 2.36-3.6 4.06-.74.98-1.36 2.02-1.88 3.13l-1.16-.93c.16.45.45 1.35.6 1.8-1.17.73-1.97 1.8-2.57 3-.73 1-1.34 2.03-1.86 3.13l-1.18-.94c.23.7.73 2.12.98 2.83L375 98.2c.14.4.4 1.16.53 1.55-1.6.74-2.36 2.12-2.34 3.87l-1.3-.46 1 1.87-1.94-.94c.14.4.42 1.22.57 1.63-1.3.76-2.35 1.75-2.26 3.35-1.92.53-2.03 2.35-1.9 4.03l-.88-1.27c-.13 1.58-.27 3.17-.42 4.76 4.3-.1 8.6-.04 12.9-.06 0 .27.02.8.02 1.07l-2.02-.63 1.03 1.62c-1.03-.1-3.1-.25-4.15-.34l1.14.97c-2.4.5-4.73 1.34-7.2 1.4l1.3.98c-1.76-.1-3.5-.2-5.25-.3l1.22 1.32c-1.03-.08-3.08-.25-4.1-.33l1.14 1.8-1.78-1.15c.06.9.16 2.72.22 3.63l-1.54-.34c.2.54.6 1.62.78 2.16l-1.73-.08c.2.6.62 1.8.83 2.4l-1.94-.5c.27.68.82 2.02 1.1 2.7l-1.62-1c.04 2.64.04 5.3 0 7.96 1.13.7 2.26 1.4 3.44 2.06l-.98 1.1c.42-.13 1.27-.37 1.7-.5.9 1.3 2.18 2.18 3.8 2.37l-.1 1c.5-.14 1.48-.42 1.97-.56l.17 1.63c.62-.24 1.85-.73 2.46-.97l-.93 1.68c1.03-.07 3.1-.22 4.13-.3l-1.26 1.23c5.78-.1 11.57-.1 17.36 0l-1.26-1.2c1.03.06 3.1.2 4.15.27l-.96-1.68c.67.26 2 .8 2.67 1.06l-.5-1.93c.7.25 2.13.74 2.84.98l-.96-1.16c2.92-1.5 5.9-4 6.8-7.28l1.07-.1c-.26-.6-.8-1.83-1.06-2.44l1.65.95c-.07-5.75-.1-11.5.02-17.26l-1.18 1.3c.07-2.1.13-4.18.2-6.26l-1.22 1.23c.08-1.74.17-3.48.26-5.22l-1.26 1.2c.08-1.73.17-3.47.26-5.2l-1.3 1.23c.08-1.03.24-3.1.3-4.12l-1.2.7c.05-1.6.1-3.22.17-4.83l-1.25 1.25c.07-1.03.2-3.1.27-4.12l-1.72.9c.3-.65.86-1.96 1.15-2.6l-1.32.37c-.18-2.27-.95-4.4-1.45-6.6l-1.3.8c.26-.7.8-2.13 1.06-2.85L391.43 87c.05-1 .16-3.03.2-4.05l-1.72.9c.28-.6.85-1.82 1.14-2.43-1.38 0-2.76 0-4.13 0M153.8 163.4l1.3 1.15c-2.06-.08-4.1-.12-6.16-.18l.73 1.15c-1.62-.05-3.23-.1-4.84-.17l1.25 1.27c-1.03-.08-3.08-.24-4.1-.3l.68 1.24c-.96-.07-2.87-.2-3.82-.26l1.24 1.3c-1.04-.07-3.1-.2-4.14-.27l.96 1.67c-.67-.26-2-.78-2.68-1.05l.5 1.94c-.6-.23-1.8-.65-2.4-.87l.12 1.7c-.54-.16-1.64-.47-2.18-.63l.18 1.66c-.54-.18-1.62-.53-2.17-.7l.2 1.62c-.6-.14-1.77-.42-2.36-.56l.68 1.8c-.68-.25-2.06-.77-2.75-1.03l.94 1.46c-1.88-.2-4 .2-3.85 2.65l-1.2-1.12c.17 2.43 1.2 4.5 4.08 3.78l-1 1.45c.7-.25 2.06-.75 2.75-1l-.56 1.88c.63-.2 1.9-.63 2.55-.85l-.53 1.92c.67-.26 2-.8 2.68-1.06l-.97 1.65c1.02-.05 3.06-.16 4.07-.2l-1 1.65c.73-.27 2.18-.8 2.9-1.08l-.97 1.65c1.03-.07 3.1-.2 4.15-.26l-1.24 1.33c1.06-.1 3.18-.27 4.24-.35l-1.25 1.3c1.75-.1 3.5-.18 5.24-.26l-1.23 1.26c1.74-.1 3.5-.18 5.23-.27l-1.25 1.2c7.38-.1 14.77-.08 22.15 0l-.36-1.1c1.5.04 2.98.07 4.48.1l-1-1.6c.72.27 2.15.84 2.86 1.13l-.9-1.48c3.55.54 5.07-3.33 7.55-5.1-.08-2.88-.07-5.76.02-8.64l-.78.73c.07-2.06-1.44-3.38-2.76-4.7-.94-1.4-2.5-1.65-4.1-1.6l1.03-1.38c-.6.2-1.8.6-2.42.8l.07-1.76c-.64.25-1.9.76-2.53 1l.93-1.67c-1.03.07-3.1.2-4.13.27l1.25-1.25c-2.1.08-4.18.12-6.26.2l1.3-1.16c-3.47.08-6.93.08-10.4 0m93.1 57.02l1.02 1.6c-.72-.3-2.17-.86-2.9-1.15l.95 1.48c-1.6-.08-3.08.2-4.05 1.55-.72.87-1.44 1.74-2.15 2.62-.46-.15-1.37-.46-1.82-.6l.94 1.2c-1.8 0-2.42 1.32-2.83 2.74-1.18 1.2-2.5 2.3-3 3.98l-1.16-.9c.16.45.46 1.36.6 1.82-1.2.68-2 1.77-2.52 3.02-1.27 1.1-1.78 2.55-1.66 4.2l-1.42-.98c.24.68.74 2.04 1 2.73l-1.96-.5c.27.68.82 2 1.1 2.68l-1.63-1c0 .8.02 2.38.03 3.17.6-.3 1.82-.9 2.43-1.18l-.92 1.7c4.05-.08 8.1-.1 12.15.03-.3-.3-.85-.92-1.12-1.23 1.02.07 3.06.2 4.08.27l-.97-1.66c.72.3 2.17.85 2.9 1.13l-1-1.48c1.93.28 3.44-.5 4.42-2.14.4.13 1.16.38 1.55.5l-1.06-1.68 2.12.7-.78-1.14c2.6-.98 4.43-3.3 5.8-5.62 1.17-1.15 1.75-2.58 1.66-4.23l1.43.97c-.28-.74-.85-2.2-1.14-2.93l1.58 1.03c-.04-2.64-.05-5.27 0-7.9-1.3-1.16-2.72-2.16-4.58-1.84.28-.25.83-.74 1.1-1-2.73.1-5.46.1-8.2.06m82.02 0l.74 1.15c-.96-.08-2.87-.23-3.82-.3l1.24 1.08c-1.6-.07-3.18.15-4.16 1.55-.55.87-1.27 1.6-2.14 2.14-1.44.36-2.38 1.32-2.73 2.76-.6.83-1.3 1.54-2.13 2.14-1.15 1.15-2.3 2.37-2.9 3.93-1.4 1.43-3.25 2.75-2.66 5.08l-1.46-.9c.25.68.76 2.02 1 2.7l-1.88-.56c.2.63.64 1.9.85 2.55l-1.9-.53c.24.66.73 1.98.97 2.65l-1.86-.8c.37 1.12.18 2.55 1.12 3.43 4.33.17 8.67-.07 13 .14l-1.3-1c2.1.1 4.1-.4 6-1.22l-.24-1.08c.6.16 1.8.48 2.4.64l-1.1-1.32c1.6.07 3.2-.13 4.05-1.64.67-.67 1.34-1.34 2.02-2 .6-.73 1.3-1.38 2.1-1.93.72-.9 1.35-1.84 1.9-2.84 1.23-1.14 1.78-2.62 1.67-4.3l.62 1.12c1.03-3.2 1.57-6.53 1.2-9.9-.6-.26-1.8-.8-2.4-1.07l.96-1.23c-.75.28-2.27.83-3.03 1.1l1.07-1.55c-2.4.03-4.8.04-7.2 0m-228.1 105.95l1.26 1c-3.1-.57-6.28 2.6-5.7 5.7l-1-1.24c.1 3.05.1 6.1 0 9.15l.68-.3c.47 2.6 2.67 4.8 5.26 5.26l-.3.67c3.72-.1 7.44-.08 11.16 0l-1.26-1.25c1.06.1 3.18.3 4.24.4l-1.25-1.1c1.95.3 3.5-.45 4.5-2.1.44.1 1.3.34 1.7.46l-1-1.12c1.73-.77 3.7-1.3 4.9-2.86.66-.67 1.34-1.33 2.03-1.97.6-.74 1.3-1.4 2.04-2 1.83-1.06 1.46-3.23 1.65-5-.52.18-1.58.54-2.1.7V329c-.62.25-1.88.77-2.5 1.04l.95-1.66c-1.6.04-3.17.1-4.75.15l.8-.9c-6.95-1.82-14.16-.96-21.3-1.26m353.08 8.08c.48 1.3.9 2.7 2.03 3.64 1.78 1.52 3.4 3.23 4.98 4.97 1.18 1.1 2.37 2.2 3.8 3 1.02.63 2.04 1.3 3.07 1.94 1.1 1.24 2.54 1.8 4.23 1.68l-1.12 1.4 2.13-.85-.9 1.84c.65-.24 1.98-.73 2.64-.98l-.54 1.9c.64-.23 1.92-.66 2.56-.88l-.57 1.88c.63-.22 1.9-.67 2.56-.9l-.58 1.9c.65-.23 1.94-.66 2.6-.88l-.6 1.87c.64-.23 1.92-.65 2.57-.87l-.53 1.92c.67-.26 2-.8 2.68-1.06l-.97 1.67c1.04-.07 3.1-.2 4.15-.27l-1.26 1.23c1.86-.06 3.72-.1 5.6-.12l-.43 1.1c2.36-.06 4.72-.06 7.1-.02l-1.02-1.6c.7.27 2.1.84 2.8 1.12l-.9-2.06 1.6 1.04c-.5-2.67 1.28-6.5-1.66-8.1-.63-.68-1.26-1.36-1.88-2.04-.66-.63-1.32-1.26-1.97-1.9-.9-1.5-2.44-1.83-4.08-1.68l1.12-1.44-2.1.86.88-1.88c-.7.28-2.1.83-2.8 1.1l.97-1.64c-.9.04-2.73.12-3.64.16l.28-1.6c-.63.3-1.92.85-2.57 1.13l.92-1.72c-1.03.07-3.1.2-4.13.26l1.24-1.28c-1.75.08-3.5.17-5.23.26l1.23-1.23c-1.62.06-3.23.1-4.84.17l.74-1.18c-1.72.07-3.43.15-5.14.24l1.26-1.2c-2.76.07-5.52.07-8.27.15l1.3-1.15c-3.1.1-6.2.07-9.3.07zM595.23 82.9c1.58-1.37 3.95-1.37 5.55 0 3.93.42 8.25-.92 11.92.87 1.66.17 3.4.14 4.94.9 1.34.27 2.7.5 4 1 1.34.27 2.7.5 4 1 1.3.26 2.63.5 3.92.9 1.4.45 2.73 1.05 4.06 1.67 1.65.63 3.32 1.2 4.94 1.93 1.32.73 2.66 1.42 4.02 2.1.5.23 1.5.73 2 .97.96.48 1.92.96 2.9 1.42 1.38.8 2.67 1.8 4.1 2.57 4.6 2.62 9.16 5.52 12.76 9.5 3.1 2.13 6.1 4.53 8.1 7.8 3.18 3.82 6.3 7.72 8.9 11.98.64 1.36 1.3 2.7 1.95 4.06.83 1.62 1.63 3.27 2.53 4.87.56 1.3 1.13 2.64 1.55 4.02.34 1 .66 2 .96 3 .37.98.73 1.97 1.06 2.98.4 1.28.65 2.6.92 3.93.78 1.54.73 3.27.9 4.94 1.68 3 .54 6.64.9 9.92 1.5 2.5 1.5 6.08 0 8.57-.4 3.27.85 6.96-.96 9.93-.15 2 .25 4.18-.92 5.97-.18 1.64-.22 3.32-.83 4.87-.34 1.02-.7 2.03-1.1 3.04-.26 1.34-.47 2.68-.9 3.97-.33 1-.7 2-1.06 2.98-.3 1-.63 2-.98 3-.32 1-.65 2.02-1.02 3-.28.98-.6 1.95-.9 2.92-.9 1.37-1.9 2.66-2.68 4.1-9.4 16.86-24.92 29.3-41.2 39.2-2.74 1.53-5.16 3.6-8 5-10.9 6.8-21.35 14.4-31 22.9-3.06 1.83-5.18 4.8-7.83 7.1-5.32 3.58-9.34 8.7-13.98 13.04-2.94 3.92-6.1 7.86-10.22 10.6-2.45 1.48-5.27 1.7-8.03 2.16-1.65-.52-3.38-.48-5.08-.54-2-2.1-4.3-3.95-5.82-6.45-.5-1.58-.98-3.18-1.7-4.68 1.76 0 3.55 0 5.33-.02 2.07-.9 4.22-1.6 6.28-2.55 3.66-2.8 7.24-6.05 9.77-9.92.8-1.76 2-3.3 3.02-4.95.43-.98.9-1.96 1.35-2.93 1.78-3.4 4.44-6.12 6.93-8.97 1.77-3.57 5.65-5.04 8.3-7.8 2.93-1.93 5.75-4.02 8.58-6.1 1.67-.77 3.34-1.58 5-2.37 1.4-.83 2.67-1.82 4.05-2.66 2.58-1.28 5.38-2.03 7.94-3.34.5-.26 1.48-.8 1.97-1.05 1.36-.65 2.7-1.3 4.06-1.95 6.64-4.17 12.98-8.8 19.2-13.56 4.16-4.52 9.97-7.4 13.1-12.88 5.32-5.1 9.63-11.13 13.5-17.4.47-.96.95-1.92 1.44-2.88.5-1.06 1-2.1 1.5-3.16.52-.95 1.04-1.9 1.58-2.84.7-1.68 1.26-3.4 1.9-5.1.28-1.04.62-2.06 1-3.07.26-1.37.47-2.75 1-4.04.27-1.4.4-2.86 1.14-4.12.18-2.03-.34-4.3 1.06-6 .05-4.83.05-9.65 0-14.46-1.56-2.03-.8-4.66-1.03-7-.8-1.26-.9-2.74-1.2-4.14-.5-1.3-.7-2.7-.93-4.05-.74-2.06-1.44-4.12-2.45-6.04-.68-1.33-1.36-2.66-2.05-3.98-.64-1.35-1.3-2.7-1.94-4.03-3.13-5.92-8.6-9.95-13.06-14.78-2.98-3.43-7.05-5.53-10.76-8.04-1.65-.8-3.3-1.6-4.93-2.4-.5-.28-1.5-.83-1.98-1.1-2.08-.85-4.23-1.5-6.2-2.55-1.63-.54-3.3-.78-4.92-1.28-1.1-.36-2.15-.78-3.18-1.25-2.36-.24-5 .54-7.02-1.03-6.16-.05-12.3-.05-18.46 0-2.96 1.9-6.7.6-9.98 1-1.5 1.16-3.4.9-5.12 1.1-1.03.44-2.07.84-3.12 1.2-1.3.42-2.66.63-4 .87-1.3.52-2.64.92-3.93 1.45-1.63.8-3.35 1.4-5.08 1.93-1.65 1.05-3.2 2.25-5 3.06-4.76 2.7-8.2 7.06-12.7 10.1-3.63 4.95-8.12 9.28-11.1 14.73-.83 1.77-2.02 3.33-3.07 4.98-1.1 2.27-1.84 4.7-2.87 7-1.1 1.87-1.8 3.94-2.48 6-.3 1-.6 2-.96 3-.32 1.04-.67 2.06-1.06 3.06-.25 1.37-.48 2.74-.96 4.04-.3 1.35-.52 2.7-1 4-.3 1.4-.44 2.85-1.16 4.12-.2 2 .3 4.24-1.02 5.98-.17 2.03.32 4.26-1 6-.16 2.03.3 4.25-1 6-.15 2 .26 4.2-.94 5.97-.18 1.7-.03 3.5-1 5-.17 1.7-.05 3.5-1 5-.17 1.7-.06 3.5-1 5-.17 1.7-.06 3.5-.98 5-.2 1.67-.16 3.4-.9 4.94-.3 1.35-.53 2.7-1 4-.28 1.34-.53 2.7-1 4-.28 1.3-.52 2.64-.95 3.93-.33 1-.68 2-1.06 2.98-.3 1-.63 2-1 3-.3 1-.62 2-.96 3-.42 1.38-1 2.7-1.56 4.02-.5.96-1 1.94-1.47 2.92-1.5 2.7-3.96 4.73-6.24 6.78-2.7-.7-2.65-3.86-1.47-5.86.3-1 .64-2 1.02-2.97.3-1 .63-2.02 1-3 .3-1.02.62-2.02 1-3 .3-1.04.65-2.05 1.04-3.05.24-1.37.46-2.75.96-4.05.28-1.38.47-2.8 1.1-4.07.2-1.7.05-3.5 1.02-4.98.18-1.73-.05-3.6 1.1-5.08.27-2.66-.7-5.67 1-8 .06-6.73.03-13.47 0-20.2.03-1.66-.2-3.44 1-4.8.4-3.3-.9-7.02 1-9.98.16-2.32-.48-4.88.9-6.94.16-1.7.04-3.5.98-5 .17-1.68.15-3.4.9-4.94.28-1.35.5-2.7 1-4 .27-1.32.5-2.64.94-3.93.32-1 .67-2 1.06-2.98.3-1.02.62-2.02 1-3 .28-1.02.6-2.02.96-3 .4-1.42 1-2.75 1.62-4.08.63-1.65 1.2-3.33 1.93-4.95.27-.5.8-1.5 1.1-1.98.8-1.64 1.6-3.3 2.4-4.94 1.44-2.4 3.17-4.62 4.57-7.06 5.92-10.5 14.95-19 25.2-25.22 1.4-.77 2.68-1.75 4.1-2.54.95-.5 1.9-1 2.87-1.5 1.63-.72 3.3-1.3 4.98-1.94 1.32-.62 2.65-1.22 4.06-1.66 1.27-.4 2.6-.65 3.92-.9 1.28-.52 2.65-.73 4-1 1.8-1 3.9-.7 5.9-.85 3.64-1.9 8-.5 11.97-.93zM603.24 113.86c1.94-1.5 4.46-.8 6.72-.97 2.56.2 5.4-.6 7.73.87 1.63.16 3.32.18 4.88.84 1 .32 1.98.67 2.97 1.03 1.7.46 3.32 1.23 4.93 2 3.5 2.45 7.4 4.38 10.33 7.55 3.16 2.93 5.15 6.8 7.53 10.34.48.98.97 1.94 1.5 2.9.7 1.6 1.3 3.28 1.92 4.94.6 1.33 1.22 2.67 1.67 4.08.4 1.28.63 2.6.9 3.92.78 1.53.73 3.27.9 4.94 1.34 1.94.73 4.35.9 6.53-3.04-3.94-6-7.9-8.93-11.93-4.13-4.93-9.34-8.78-14.76-12.17-.98-.48-1.95-.98-2.9-1.5-1.75-.75-3.56-1.33-5.3-2.1-4.52.26-9.3-.77-13.67.56-1.18.6-2.37 1.2-3.58 1.75.05 1.6.1 3.2.14 4.8 1.35 1.66.87 3.83.98 5.8-.1 2.17.27 4.5-.75 6.53-.3 1-.65 2-1 2.97-.4 1.38-.98 2.7-1.57 4-1.1 1.86-1.8 3.9-2.4 5.94-.87 1.36-1.86 2.64-2.64 4.06-1.9 4.26-5.42 7.4-7.98 11.22-3.55 2.38-6.52 5.53-10.3 7.6-1.6.75-3.22 1.52-4.93 2-1 .35-2 .7-2.98 1-1.3.45-2.62.67-3.94.93-4.84 1.68-10.2.44-15.25.7-.27.64-.8 1.9-1.07 2.53-.27 1.02-.6 2.03-.94 3.03-.3 1-.65 2-1.02 3-.3 1-.62 2-.96 3-.4 1.4-1 2.75-1.63 4.08-.63 1.65-1.2 3.3-1.92 4.93-.74 1.3-1.43 2.65-2.1 4-1.18 2.24-1.9 4.68-2.9 7-.53.97-1.02 1.93-1.5 2.9-.8 1.4-1.8 2.7-2.6 4.08-.48.97-.95 1.93-1.42 2.9-.65 1.34-1.32 2.67-2 4-1 2.02-2 4.02-2.96 6.04-.82 1.38-1.8 2.66-2.63 4.05-.45.97-.9 1.96-1.35 2.94-3.47 5.38-7.16 10.65-10.63 16.04-.66 1.35-1.3 2.7-1.94 4.07-.52.96-1.04 1.9-1.55 2.86-.84 2-1.5 4.1-2.42 6.1-1.1 1.85-1.8 3.9-2.4 5.95-.54.93-1.1 1.83-1.7 2.7-1.26-1.12-2.44-2.34-3.65-3.52.9-1.62.97-3.5 1.57-5.23.3-1.02.64-2 1-3 .4-1.4 1-2.75 1.62-4.08.63-1.65 1.2-3.32 1.93-4.94 2.03-3.5 3.6-7.22 5-11.02.5-.93 1.03-1.88 1.54-2.82.82-1.74 1.7-3.44 2.53-5.16.68-1.33 1.36-2.66 2.04-3.98 1.18-2.25 1.9-4.7 2.88-7.03.54-.94 1.08-1.9 1.63-2.84.83-2.07 1.5-4.2 2.48-6.2.5-1.28.9-2.6 1.4-3.9.3-1.02.62-2.02.98-3 .3-1.03.63-2.03 1-3.02.3-1.03.66-2.05 1.06-3.05.24-1.37.45-2.75.96-4.04.28-1.38.48-2.8 1.1-4.07.17-1.68.16-3.4.9-4.95.28-1.38.47-2.8 1.1-4.07.18-1.7.06-3.5 1-5 .18-1.7.06-3.48 1-5 .18-1.7.05-3.5 1-5 .18-1.68.07-3.48 1-5 .17-1.66.15-3.38.9-4.92.28-1.35.5-2.7 1-4 .27-1.32.5-2.65.93-3.93.33-1.03.7-2.04 1.12-3.03.2-1.32.42-2.64.8-3.92.63-.96 1.3-1.92 2.04-2.8.67.92 1.3 1.87 1.93 2.85.34 1.26.57 2.55.83 3.84.8 1.92.72 4.05 1.2 6.07 1.27 1.95 2.9 3.72 4.94 4.88 1.44.5 2.93.87 4.3 1.55 1.8.04 3.62.04 5.43 0 2.03-.96 4.34-1.05 6.35-2.1.96-.52 1.93-1.02 2.92-1.5 7.5-4.58 13.1-11.5 17.8-18.8.96-2.03 1.98-4.03 2.97-6.05 1.8-2.83 2.6-6.05 3.6-9.2.1-2.82.1-5.63.02-8.45-.67-1.38-1.05-2.86-1.54-4.3-1.15-2-2.82-3.65-4.8-4.8-2.08-.6-4.12-1.35-6.1-2.22 1.05-1.57 2.34-3 4.07-3.84 1.85-.92 3.76-1.76 5.87-1.9 2.1-1.2 4.57-.68 6.87-.84zM485.42 300.1c1.73-.9 3.58-1.4 5.54-1.2 2.88.2 6-.6 8.67.8 1.32.24 2.65.47 3.94.9 1 .32 2 .66 2.98 1.03 1.4.4 2.75 1 4.1 1.62 1.63.62 3.3 1.2 4.9 1.92 1.62.9 3.28 1.7 4.94 2.5 1.37.8 2.65 1.78 4.07 2.56 3.83 1.7 6.7 4.78 10.05 7.15.87 1.57 2.14 2.86 3.4 4.13.04.45.13 1.32.17 1.76.45 1.1.85 2.2 1.2 3.33-1.6.6-3.2 1.27-4.83 1.8-1.74.85-3.7.65-5.58.75.05 1.7.1 3.4.14 5.1 1.07 1.4.9 3.17 1.08 4.82-.6.02-1.84.05-2.45.06-1.82 1.43-4.17.84-6.28 1-4.68-5.23-10.05-9.77-16.04-13.42-1.36-.63-2.7-1.3-4.07-1.92-.96-.52-1.9-1.04-2.85-1.56-1.67-.7-3.4-1.27-5.1-1.9-1-.28-2.02-.6-3-.96-1.04-.32-2.06-.67-3.06-1.06-1.4-.26-2.83-.4-4.1-1.05-1.67-.2-3.4-.17-4.93-.92-1.97-.3-3.87-.95-5.76-1.54 2.47-2.27 4.54-4.98 7.36-6.8 1.07-.56 1.8-1.5 2.45-2.48.27-1 .5-2 .72-3 .87-1.08 1.7-2.2 2.3-3.43z"/></g></svg>