<svg xmlns="http://www.w3.org/2000/svg" width="512" height="512" viewBox="0 0 310 310" enable-background="new 0 0 310 310"><g><path fill="#D80027" d="M297.92 64.64c-11.2-13.3-31.85-18.72-71.3-18.72H83.38c-40.37 0-61.38 5.77-72.53 19.93C0 79.65 0 100 0 128.17v53.67c0 54.55 12.9 82.24 83.4 82.24h143.2c34.23 0 53.2-4.8 65.45-16.52 12.58-12.04 17.95-31.7 17.95-65.72v-53.67c0-29.7-.84-50.16-12.08-63.52zm-98.9 97.77l-65.04 34c-1.45.76-3.04 1.14-4.63 1.14-1.8 0-3.6-.5-5.18-1.45-3-1.82-4.82-5.06-4.82-8.56v-67.77c0-3.5 1.82-6.73 4.8-8.54 3-1.82 6.7-1.94 9.8-.33L199 144.67c3.3 1.72 5.38 5.14 5.4 8.86 0 3.73-2.08 7.15-5.38 8.88z"/></g></svg>